<svg xmlns="http://www.w3.org/2000/svg" width="72" height="88" viewBox="0 0 72 88"><defs><filter id="paper"><feTurbulence type="fractalNoise" baseFrequency=".7" numOctaves="3" stitchTiles="stitch"/><feColorMatrix type="saturate" values="0"/><feComponentTransfer><feFuncA type="linear" slope=".055"/></feComponentTransfer><feBlend in="SourceGraphic" mode="multiply"/></filter><linearGradient id="sky" x2="0" y2="1"><stop stop-color="#e5cfac"/><stop offset="1" stop-color="#f8efdb"/></linearGradient></defs><ellipse cx="36" cy="79" rx="24" ry="6" fill="#8a7960" opacity=".22"/><path d="M21 55 L15 76 L29 77 L36 61 L45 76 L60 74 L48 51" fill="#e7d7b1" stroke="#8d8266" stroke-width="2"/><path d="M21 31 L12 55 L30 52 L36 62 L44 50 L60 54 L49 31Z" fill="#f7edce" stroke="#9e9271" stroke-width="2"/><path d="M22 30 L22 12 L36 4 L50 12 L49 30 L36 37Z" fill="#f9efce" stroke="#928367" stroke-width="2"/><path d="M23 15 L37 21 L49 14 M36 21 V36 M36 38 L31 53" fill="none" stroke="#bfac80" stroke-width="2"/><path d="M50 33 Q70 42 53 67 M51 32 L53 67" fill="none" stroke="#667d70" stroke-width="3"/><path d="M26 29 L31 28 M40 28 L44 29" stroke="#5f715f" stroke-width="2"/></svg>